<svg width="300" height="50" viewBox="0 0 300 50" fill="none" xmlns="http://www.w3.org/2000/svg">
<path d="M76.7773 14.0938H84.2012C85.7233 14.0938 87.0312 14.3216 88.125 14.7773C89.2279 15.2331 90.0755 15.9076 90.668 16.8008C91.2604 17.694 91.5566 18.7923 91.5566 20.0957C91.5566 21.1621 91.3743 22.0781 91.0098 22.8438C90.6543 23.6003 90.1484 24.2337 89.4922 24.7441C88.8451 25.2454 88.084 25.6465 87.209 25.9473L85.9102 26.6309H79.457L79.4297 23.4316H84.2285C84.9486 23.4316 85.5456 23.304 86.0195 23.0488C86.4935 22.7936 86.849 22.4382 87.0859 21.9824C87.332 21.5267 87.4551 20.998 87.4551 20.3965C87.4551 19.7585 87.3366 19.207 87.0996 18.7422C86.8626 18.2773 86.5026 17.9219 86.0195 17.6758C85.5365 17.4297 84.9303 17.3066 84.2012 17.3066H80.8789V34H76.7773V14.0938ZM87.9062 34L83.3672 25.127L87.7012 25.0996L92.2949 33.8086V34H87.9062ZM101.277 34.2734C100.129 34.2734 99.099 34.0911 98.1875 33.7266C97.276 33.3529 96.5013 32.8379 95.8633 32.1816C95.2344 31.5254 94.7513 30.7643 94.4141 29.8984C94.0768 29.0234 93.9082 28.0938 93.9082 27.1094V26.5625C93.9082 25.4414 94.0677 24.416 94.3867 23.4863C94.7057 22.5566 95.1615 21.75 95.7539 21.0664C96.3555 20.3828 97.0846 19.8587 97.9414 19.4941C98.7982 19.1204 99.7643 18.9336 100.84 18.9336C101.888 18.9336 102.818 19.1068 103.629 19.4531C104.44 19.7995 105.119 20.2917 105.666 20.9297C106.222 21.5677 106.641 22.3333 106.924 23.2266C107.206 24.1107 107.348 25.0951 107.348 26.1797V27.8203H95.5898V25.1953H103.479V24.8945C103.479 24.3477 103.378 23.86 103.178 23.4316C102.986 22.9941 102.695 22.6478 102.303 22.3926C101.911 22.1374 101.41 22.0098 100.799 22.0098C100.279 22.0098 99.8327 22.1237 99.459 22.3516C99.0853 22.5794 98.7799 22.8984 98.543 23.3086C98.3151 23.7188 98.1419 24.2018 98.0234 24.7578C97.9141 25.3047 97.8594 25.9062 97.8594 26.5625V27.1094C97.8594 27.7018 97.9414 28.2487 98.1055 28.75C98.2786 29.2513 98.5202 29.6842 98.8301 30.0488C99.1491 30.4134 99.5319 30.696 99.9785 30.8965C100.434 31.097 100.949 31.1973 101.523 31.1973C102.234 31.1973 102.895 31.0605 103.506 30.7871C104.126 30.5046 104.659 30.0807 105.105 29.5156L107.02 31.5938C106.71 32.0404 106.286 32.4688 105.748 32.8789C105.219 33.2891 104.581 33.6263 103.834 33.8906C103.087 34.1458 102.234 34.2734 101.277 34.2734ZM117.588 29.9121C117.588 29.6296 117.506 29.3743 117.342 29.1465C117.178 28.9186 116.872 28.709 116.426 28.5176C115.988 28.3171 115.355 28.1348 114.525 27.9707C113.778 27.8066 113.081 27.6016 112.434 27.3555C111.796 27.1003 111.24 26.7949 110.766 26.4395C110.301 26.084 109.936 25.6647 109.672 25.1816C109.408 24.6895 109.275 24.1289 109.275 23.5C109.275 22.8802 109.408 22.2969 109.672 21.75C109.945 21.2031 110.333 20.7201 110.834 20.3008C111.344 19.8724 111.964 19.5397 112.693 19.3027C113.432 19.0566 114.261 18.9336 115.182 18.9336C116.467 18.9336 117.57 19.1387 118.49 19.5488C119.42 19.959 120.131 20.5241 120.623 21.2441C121.124 21.9551 121.375 22.7663 121.375 23.6777H117.438C117.438 23.2949 117.355 22.9531 117.191 22.6523C117.036 22.3424 116.79 22.1009 116.453 21.9277C116.125 21.7454 115.697 21.6543 115.168 21.6543C114.73 21.6543 114.352 21.7318 114.033 21.8867C113.714 22.0326 113.468 22.2331 113.295 22.4883C113.131 22.7344 113.049 23.0078 113.049 23.3086C113.049 23.5365 113.094 23.7415 113.186 23.9238C113.286 24.097 113.445 24.2565 113.664 24.4023C113.883 24.5482 114.165 24.6849 114.512 24.8125C114.867 24.931 115.305 25.0404 115.824 25.1406C116.891 25.3594 117.843 25.6465 118.682 26.002C119.52 26.3483 120.186 26.8223 120.678 27.4238C121.17 28.0163 121.416 28.7956 121.416 29.7617C121.416 30.418 121.27 31.0195 120.979 31.5664C120.687 32.1133 120.268 32.5918 119.721 33.002C119.174 33.403 118.518 33.7174 117.752 33.9453C116.995 34.1641 116.143 34.2734 115.195 34.2734C113.819 34.2734 112.652 34.0273 111.695 33.5352C110.747 33.043 110.027 32.4186 109.535 31.6621C109.052 30.8965 108.811 30.1126 108.811 29.3105H112.543C112.561 29.8483 112.698 30.2812 112.953 30.6094C113.217 30.9375 113.55 31.1745 113.951 31.3203C114.361 31.4661 114.803 31.5391 115.277 31.5391C115.788 31.5391 116.212 31.4707 116.549 31.334C116.886 31.1882 117.141 30.9967 117.314 30.7598C117.497 30.5137 117.588 30.2311 117.588 29.9121ZM131.219 19.207V21.9961H122.605V19.207H131.219ZM124.738 15.5566H128.676V29.543C128.676 29.9714 128.73 30.2995 128.84 30.5273C128.958 30.7552 129.132 30.9147 129.359 31.0059C129.587 31.0879 129.874 31.1289 130.221 31.1289C130.467 31.1289 130.686 31.1198 130.877 31.1016C131.077 31.0742 131.246 31.0469 131.383 31.0195L131.396 33.918C131.059 34.0273 130.695 34.1139 130.303 34.1777C129.911 34.2415 129.478 34.2734 129.004 34.2734C128.138 34.2734 127.382 34.1322 126.734 33.8496C126.096 33.5579 125.604 33.0931 125.258 32.4551C124.911 31.8171 124.738 30.9785 124.738 29.9395V15.5566ZM141.445 30.6641V24.0742C141.445 23.6003 141.368 23.1947 141.213 22.8574C141.058 22.5111 140.816 22.2422 140.488 22.0508C140.169 21.8594 139.755 21.7637 139.244 21.7637C138.807 21.7637 138.428 21.8411 138.109 21.9961C137.79 22.1419 137.544 22.3561 137.371 22.6387C137.198 22.9121 137.111 23.2357 137.111 23.6094H133.174C133.174 22.9805 133.32 22.3835 133.611 21.8184C133.903 21.2533 134.327 20.7565 134.883 20.3281C135.439 19.8906 136.1 19.5488 136.865 19.3027C137.64 19.0566 138.506 18.9336 139.463 18.9336C140.611 18.9336 141.632 19.125 142.525 19.5078C143.419 19.8906 144.12 20.4648 144.631 21.2305C145.15 21.9961 145.41 22.9531 145.41 24.1016V30.4316C145.41 31.2428 145.46 31.9082 145.561 32.4277C145.661 32.9382 145.807 33.3848 145.998 33.7676V34H142.02C141.828 33.599 141.682 33.0977 141.582 32.4961C141.491 31.8854 141.445 31.2747 141.445 30.6641ZM141.965 24.9902L141.992 27.2188H139.791C139.271 27.2188 138.82 27.278 138.438 27.3965C138.055 27.515 137.74 27.6836 137.494 27.9023C137.248 28.112 137.066 28.3581 136.947 28.6406C136.838 28.9232 136.783 29.2331 136.783 29.5703C136.783 29.9076 136.861 30.2129 137.016 30.4863C137.171 30.7507 137.394 30.9603 137.686 31.1152C137.977 31.2611 138.319 31.334 138.711 31.334C139.303 31.334 139.818 31.2155 140.256 30.9785C140.693 30.7415 141.031 30.4499 141.268 30.1035C141.514 29.7572 141.641 29.429 141.65 29.1191L142.689 30.7871C142.544 31.1608 142.343 31.5482 142.088 31.9492C141.842 32.3503 141.527 32.7285 141.145 33.084C140.762 33.4303 140.301 33.7174 139.764 33.9453C139.226 34.1641 138.588 34.2734 137.85 34.2734C136.911 34.2734 136.059 34.0866 135.293 33.7129C134.536 33.3301 133.935 32.806 133.488 32.1406C133.051 31.4661 132.832 30.7005 132.832 29.8438C132.832 29.069 132.978 28.3809 133.27 27.7793C133.561 27.1777 133.99 26.6719 134.555 26.2617C135.129 25.8424 135.844 25.528 136.701 25.3184C137.558 25.0996 138.551 24.9902 139.682 24.9902H141.965ZM157.195 30.459V19.207H161.133V34H157.428L157.195 30.459ZM157.633 27.4238L158.795 27.3965C158.795 28.3809 158.681 29.2969 158.453 30.1445C158.225 30.9831 157.883 31.7122 157.428 32.332C156.972 32.9427 156.398 33.4212 155.705 33.7676C155.012 34.1048 154.197 34.2734 153.258 34.2734C152.538 34.2734 151.872 34.1732 151.262 33.9727C150.66 33.763 150.141 33.4395 149.703 33.002C149.275 32.5553 148.938 31.9857 148.691 31.293C148.454 30.5911 148.336 29.748 148.336 28.7637V19.207H152.273V28.791C152.273 29.2285 152.324 29.5977 152.424 29.8984C152.533 30.1992 152.684 30.4453 152.875 30.6367C153.066 30.8281 153.29 30.9648 153.545 31.0469C153.809 31.1289 154.101 31.1699 154.42 31.1699C155.231 31.1699 155.869 31.0059 156.334 30.6777C156.808 30.3496 157.141 29.903 157.332 29.3379C157.533 28.7637 157.633 28.1257 157.633 27.4238ZM168.078 22.4336V34H164.141V19.207H167.846L168.078 22.4336ZM172.535 19.1113L172.467 22.7617C172.275 22.7344 172.043 22.7116 171.77 22.6934C171.505 22.666 171.264 22.6523 171.045 22.6523C170.489 22.6523 170.006 22.7253 169.596 22.8711C169.195 23.0078 168.857 23.2129 168.584 23.4863C168.32 23.7598 168.119 24.0924 167.982 24.4844C167.855 24.8763 167.782 25.3229 167.764 25.8242L166.971 25.5781C166.971 24.6211 167.066 23.7415 167.258 22.9395C167.449 22.1283 167.727 21.4219 168.092 20.8203C168.465 20.2188 168.921 19.7539 169.459 19.4258C169.997 19.0977 170.612 18.9336 171.305 18.9336C171.523 18.9336 171.747 18.9518 171.975 18.9883C172.202 19.0156 172.389 19.0566 172.535 19.1113ZM181.914 30.6641V24.0742C181.914 23.6003 181.837 23.1947 181.682 22.8574C181.527 22.5111 181.285 22.2422 180.957 22.0508C180.638 21.8594 180.223 21.7637 179.713 21.7637C179.275 21.7637 178.897 21.8411 178.578 21.9961C178.259 22.1419 178.013 22.3561 177.84 22.6387C177.667 22.9121 177.58 23.2357 177.58 23.6094H173.643C173.643 22.9805 173.788 22.3835 174.08 21.8184C174.372 21.2533 174.796 20.7565 175.352 20.3281C175.908 19.8906 176.568 19.5488 177.334 19.3027C178.109 19.0566 178.975 18.9336 179.932 18.9336C181.08 18.9336 182.101 19.125 182.994 19.5078C183.887 19.8906 184.589 20.4648 185.1 21.2305C185.619 21.9961 185.879 22.9531 185.879 24.1016V30.4316C185.879 31.2428 185.929 31.9082 186.029 32.4277C186.13 32.9382 186.275 33.3848 186.467 33.7676V34H182.488C182.297 33.599 182.151 33.0977 182.051 32.4961C181.96 31.8854 181.914 31.2747 181.914 30.6641ZM182.434 24.9902L182.461 27.2188H180.26C179.74 27.2188 179.289 27.278 178.906 27.3965C178.523 27.515 178.209 27.6836 177.963 27.9023C177.717 28.112 177.535 28.3581 177.416 28.6406C177.307 28.9232 177.252 29.2331 177.252 29.5703C177.252 29.9076 177.329 30.2129 177.484 30.4863C177.639 30.7507 177.863 30.9603 178.154 31.1152C178.446 31.2611 178.788 31.334 179.18 31.334C179.772 31.334 180.287 31.2155 180.725 30.9785C181.162 30.7415 181.499 30.4499 181.736 30.1035C181.982 29.7572 182.11 29.429 182.119 29.1191L183.158 30.7871C183.012 31.1608 182.812 31.5482 182.557 31.9492C182.311 32.3503 181.996 32.7285 181.613 33.084C181.23 33.4303 180.77 33.7174 180.232 33.9453C179.695 34.1641 179.057 34.2734 178.318 34.2734C177.38 34.2734 176.527 34.0866 175.762 33.7129C175.005 33.3301 174.404 32.806 173.957 32.1406C173.52 31.4661 173.301 30.7005 173.301 29.8438C173.301 29.069 173.447 28.3809 173.738 27.7793C174.03 27.1777 174.458 26.6719 175.023 26.2617C175.598 25.8424 176.313 25.528 177.17 25.3184C178.027 25.0996 179.02 24.9902 180.15 24.9902H182.434ZM192.77 22.3652V34H188.832V19.207H192.523L192.77 22.3652ZM192.195 26.084H191.129C191.129 24.9902 191.27 24.0059 191.553 23.1309C191.835 22.2467 192.232 21.4948 192.742 20.875C193.253 20.2461 193.859 19.7676 194.561 19.4395C195.271 19.1022 196.064 18.9336 196.939 18.9336C197.632 18.9336 198.266 19.0339 198.84 19.2344C199.414 19.4349 199.906 19.7539 200.316 20.1914C200.736 20.6289 201.055 21.2077 201.273 21.9277C201.501 22.6478 201.615 23.5273 201.615 24.5664V34H197.65V24.5527C197.65 23.8965 197.559 23.3861 197.377 23.0215C197.195 22.6569 196.926 22.4017 196.57 22.2559C196.224 22.1009 195.796 22.0234 195.285 22.0234C194.757 22.0234 194.296 22.1283 193.904 22.3379C193.521 22.5475 193.202 22.8392 192.947 23.2129C192.701 23.5775 192.514 24.0059 192.387 24.498C192.259 24.9902 192.195 25.5189 192.195 26.084ZM211.855 19.207V21.9961H203.242V19.207H211.855ZM205.375 15.5566H209.312V29.543C209.312 29.9714 209.367 30.2995 209.477 30.5273C209.595 30.7552 209.768 30.9147 209.996 31.0059C210.224 31.0879 210.511 31.1289 210.857 31.1289C211.104 31.1289 211.322 31.1198 211.514 31.1016C211.714 31.0742 211.883 31.0469 212.02 31.0195L212.033 33.918C211.696 34.0273 211.331 34.1139 210.939 34.1777C210.548 34.2415 210.115 34.2734 209.641 34.2734C208.775 34.2734 208.018 34.1322 207.371 33.8496C206.733 33.5579 206.241 33.0931 205.895 32.4551C205.548 31.8171 205.375 30.9785 205.375 29.9395V15.5566ZM225.418 14.0938V34H221.316V14.0938H225.418ZM233.348 22.5977V25.7969H224.297V22.5977H233.348ZM234.305 14.0938V17.3066H224.297V14.0938H234.305ZM240.594 19.207V34H236.643V19.207H240.594ZM236.396 15.3516C236.396 14.7773 236.597 14.3034 236.998 13.9297C237.399 13.556 237.937 13.3691 238.611 13.3691C239.277 13.3691 239.81 13.556 240.211 13.9297C240.621 14.3034 240.826 14.7773 240.826 15.3516C240.826 15.9258 240.621 16.3997 240.211 16.7734C239.81 17.1471 239.277 17.334 238.611 17.334C237.937 17.334 237.399 17.1471 236.998 16.7734C236.597 16.3997 236.396 15.9258 236.396 15.3516ZM247.703 22.3652V34H243.766V19.207H247.457L247.703 22.3652ZM247.129 26.084H246.062C246.062 24.9902 246.204 24.0059 246.486 23.1309C246.769 22.2467 247.165 21.4948 247.676 20.875C248.186 20.2461 248.792 19.7676 249.494 19.4395C250.205 19.1022 250.998 18.9336 251.873 18.9336C252.566 18.9336 253.199 19.0339 253.773 19.2344C254.348 19.4349 254.84 19.7539 255.25 20.1914C255.669 20.6289 255.988 21.2077 256.207 21.9277C256.435 22.6478 256.549 23.5273 256.549 24.5664V34H252.584V24.5527C252.584 23.8965 252.493 23.3861 252.311 23.0215C252.128 22.6569 251.859 22.4017 251.504 22.2559C251.158 22.1009 250.729 22.0234 250.219 22.0234C249.69 22.0234 249.23 22.1283 248.838 22.3379C248.455 22.5475 248.136 22.8392 247.881 23.2129C247.635 23.5775 247.448 24.0059 247.32 24.498C247.193 24.9902 247.129 25.5189 247.129 26.084ZM268.279 30.7734V13H272.244V34H268.676L268.279 30.7734ZM258.928 26.7812V26.4941C258.928 25.3639 259.055 24.3385 259.311 23.418C259.566 22.4883 259.939 21.6908 260.432 21.0254C260.924 20.36 261.53 19.8451 262.25 19.4805C262.97 19.1159 263.79 18.9336 264.711 18.9336C265.577 18.9336 266.333 19.1159 266.98 19.4805C267.637 19.8451 268.193 20.3646 268.648 21.0391C269.113 21.7044 269.487 22.4928 269.77 23.4043C270.052 24.3066 270.257 25.2956 270.385 26.3711V27C270.257 28.0299 270.052 28.987 269.77 29.8711C269.487 30.7552 269.113 31.5299 268.648 32.1953C268.193 32.8516 267.637 33.362 266.98 33.7266C266.324 34.0911 265.559 34.2734 264.684 34.2734C263.763 34.2734 262.943 34.0866 262.223 33.7129C261.512 33.3392 260.91 32.8151 260.418 32.1406C259.935 31.4661 259.566 30.6732 259.311 29.7617C259.055 28.8503 258.928 27.8568 258.928 26.7812ZM262.865 26.4941V26.7812C262.865 27.3919 262.911 27.9616 263.002 28.4902C263.102 29.0189 263.262 29.4883 263.48 29.8984C263.708 30.2995 264 30.6139 264.355 30.8418C264.72 31.0605 265.162 31.1699 265.682 31.1699C266.356 31.1699 266.912 31.0195 267.35 30.7188C267.787 30.4089 268.12 29.985 268.348 29.4473C268.585 28.9095 268.721 28.2897 268.758 27.5879V25.7969C268.73 25.2227 268.648 24.7077 268.512 24.252C268.384 23.7871 268.193 23.3906 267.938 23.0625C267.691 22.7344 267.382 22.4792 267.008 22.2969C266.643 22.1146 266.21 22.0234 265.709 22.0234C265.199 22.0234 264.761 22.1419 264.396 22.3789C264.032 22.6068 263.736 22.9212 263.508 23.3223C263.289 23.7233 263.125 24.1973 263.016 24.7441C262.915 25.2819 262.865 25.8652 262.865 26.4941ZM282.129 34.2734C280.98 34.2734 279.951 34.0911 279.039 33.7266C278.128 33.3529 277.353 32.8379 276.715 32.1816C276.086 31.5254 275.603 30.7643 275.266 29.8984C274.928 29.0234 274.76 28.0938 274.76 27.1094V26.5625C274.76 25.4414 274.919 24.416 275.238 23.4863C275.557 22.5566 276.013 21.75 276.605 21.0664C277.207 20.3828 277.936 19.8587 278.793 19.4941C279.65 19.1204 280.616 18.9336 281.691 18.9336C282.74 18.9336 283.669 19.1068 284.48 19.4531C285.292 19.7995 285.971 20.2917 286.518 20.9297C287.074 21.5677 287.493 22.3333 287.775 23.2266C288.058 24.1107 288.199 25.0951 288.199 26.1797V27.8203H276.441V25.1953H284.33V24.8945C284.33 24.3477 284.23 23.86 284.029 23.4316C283.838 22.9941 283.546 22.6478 283.154 22.3926C282.762 22.1374 282.261 22.0098 281.65 22.0098C281.131 22.0098 280.684 22.1237 280.311 22.3516C279.937 22.5794 279.632 22.8984 279.395 23.3086C279.167 23.7188 278.993 24.2018 278.875 24.7578C278.766 25.3047 278.711 25.9062 278.711 26.5625V27.1094C278.711 27.7018 278.793 28.2487 278.957 28.75C279.13 29.2513 279.372 29.6842 279.682 30.0488C280.001 30.4134 280.383 30.696 280.83 30.8965C281.286 31.097 281.801 31.1973 282.375 31.1973C283.086 31.1973 283.747 31.0605 284.357 30.7871C284.977 30.5046 285.51 30.0807 285.957 29.5156L287.871 31.5938C287.561 32.0404 287.137 32.4688 286.6 32.8789C286.071 33.2891 285.433 33.6263 284.686 33.8906C283.938 34.1458 283.086 34.2734 282.129 34.2734ZM294.379 22.4336V34H290.441V19.207H294.146L294.379 22.4336ZM298.836 19.1113L298.768 22.7617C298.576 22.7344 298.344 22.7116 298.07 22.6934C297.806 22.666 297.564 22.6523 297.346 22.6523C296.79 22.6523 296.307 22.7253 295.896 22.8711C295.495 23.0078 295.158 23.2129 294.885 23.4863C294.62 23.7598 294.42 24.0924 294.283 24.4844C294.156 24.8763 294.083 25.3229 294.064 25.8242L293.271 25.5781C293.271 24.6211 293.367 23.7415 293.559 22.9395C293.75 22.1283 294.028 21.4219 294.393 20.8203C294.766 20.2188 295.222 19.7539 295.76 19.4258C296.298 19.0977 296.913 18.9336 297.605 18.9336C297.824 18.9336 298.048 18.9518 298.275 18.9883C298.503 19.0156 298.69 19.0566 298.836 19.1113Z" fill="white"/>
<path d="M40.2507 50C26.4661 50 15.2507 38.7847 15.2507 25C15.2507 11.2153 26.4661 0 40.2507 0C54.0354 0 65.2507 11.2153 65.2507 25C65.2507 38.7847 54.0354 50 40.2507 50ZM40.2507 2.03915C27.608 2.03915 17.3097 12.3369 17.3097 25C17.3097 37.6631 27.6074 47.9608 40.2705 47.9608C52.9337 47.9608 63.2116 37.6631 63.2116 25C63.2116 12.3369 52.9139 2.03915 40.2507 2.03915Z" fill="white"/>
<path d="M40.2507 35.1748C34.6431 35.1748 30.0755 30.6072 30.0755 24.9995C30.0755 19.3919 34.6431 14.8243 40.2507 14.8243C45.8584 14.8243 50.426 19.3919 50.426 24.9995C50.426 30.6072 45.8584 35.1748 40.2507 35.1748ZM40.2507 16.8632C35.7646 16.8632 32.1146 20.5132 32.1146 24.9993C32.1146 29.4854 35.7646 33.1354 40.2507 33.1354C44.7369 33.1354 48.3868 29.4854 48.3868 24.9993C48.3868 20.5132 44.7369 16.8632 40.2507 16.8632V16.8632Z" fill="white"/>
<path d="M5.66669 20.3309H7.70584V48.6344H5.66669V20.3309Z" fill="white"/>
<path d="M3.77087 1.36636H5.81003V12.8466H3.77087V1.36636Z" fill="white"/>
<path d="M7.56369 1.36636H9.60284V12.8466H7.56369V1.36636Z" fill="white"/>
<path d="M6.68628 20.9823C4.93249 20.9823 3.48458 20.3705 2.36305 19.1881C-0.287386 16.3942 -0.00202058 11.2963 0.0184875 11.0725V1.366H2.05764V11.1334C2.05764 11.2354 1.83324 15.6196 3.85186 17.7812C4.58605 18.5559 5.50369 18.9232 6.68616 18.9232L6.68628 20.9823Z" fill="white"/>
<path d="M6.68627 20.9823V18.9431C7.86875 18.9431 8.80687 18.5763 9.52058 17.8011C11.5597 15.66 11.3148 11.2553 11.3148 11.2149V1.38596H13.3539V11.1534C13.3744 11.3163 13.6393 16.3942 11.0089 19.1875C9.88785 20.3705 8.43994 20.9822 6.68616 20.9822L6.68627 20.9823Z" fill="white"/>
</svg>
